<svg xmlns="http://www.w3.org/2000/svg" style="display: none;"><symbol id="axe" viewBox="0 0 439.374 439.375"><path d="M75.879,433.771c-0.05,0.047-0.103,0.088-0.147,0.135l-1.864,1.859c-0.378,0.141-0.743,0.33-1.082,0.551 c-7.391,4.877-17.866,3.827-24.168-2.473c-6.402-6.403-7.448-16.542-2.499-24.104c0.231-0.358,0.414-0.736,0.544-1.135 l229.137-229.136c5.064,3.629,9.931,7.467,14.498,11.441c3.633,3.17,7.134,6.438,10.414,9.729c1.293,1.284,2.548,2.585,3.775,3.879 C209.978,299.354,75.879,433.771,75.879,433.771z"/><path d="M320.073,205.147c-2-2.436-3.9-4.646-5.81-6.769l-1.124-1.278c-0.566-0.651-1.13-1.302-1.748-1.958 c-1.538-1.623-3.093-3.245-4.683-4.833c-3.438-3.444-7.123-6.885-10.951-10.218c-5.968-5.192-12.408-10.161-19.134-14.762 c-27.654-18.897-57.767-29.305-84.793-29.305c-11.695,0-22.48,1.924-32.14,5.73c-6.709-33.396,7.499-73.09,37.294-102.886 C221.692,14.164,253.096,0,283.145,0c2.997,0,5.979,0.145,8.893,0.441c2.84,23.888,22.666,59.329,54.031,96.225 c2.158,2.549,4.368,5.091,6.646,7.648c6.284,7.068,12.815,13.998,19.396,20.583c1.891,1.892,3.786,3.693,5.687,5.494l2.021,1.926 c2.247,2.15,4.493,4.257,6.739,6.336L320.073,205.147z"/><path d="M395.98,109.857c-0.031,0.027-0.069,0.053-0.096,0.082c-0.172,0.155-0.34,0.321-0.493,0.494 c-0.665,0.697-4.324,4.396-10.356,10.472c-1.239-1.183-2.478-2.383-3.711-3.614c-6.436-6.439-12.819-13.213-18.961-20.119 c-1.104-1.236-2.188-2.473-3.261-3.707l7.649-7.648c1.512-0.586,2.603-1.569,3.013-1.971c0.299-0.301,0.981-0.47,1.868-0.47 c3.565,0,9.881,2.723,15.954,8.801c3.868,3.867,6.828,8.35,8.126,12.305C396.62,107.277,396.453,109.062,395.98,109.857z"/></symbol><symbol id="knife" viewBox="0 0 293.296 293.296"><path d="M36.164,237.742l-16.665,16.699c-6.023,6.037-7.612,14.478-4.247,22.587c3.908,9.425,13.606,16.266,23.057,16.268 c0.002,0,0.002,0,0.004,0c5.332,0,10.199-2.053,14.081-5.94c8.909-8.93,7.685-16.982,6.878-22.311 c-0.628-4.115-0.836-5.501,2.44-8.788c3.716-3.724,7.218-5.291,12.515-7.663c8.971-4.016,21.25-9.514,40.538-28.84l20.561-20.997 l-24.537-24.524c-1.976-1.981-3.503-4.239-4.623-6.638L36.164,237.742z"/><path d="M271.677,2.046c-38.582,37.338-149.718,150.127-149.718,150.127c-3.006,3.007-3.006,7.886,0,10.892l35.705,35.697 c1.504,1.504,3.475,2.259,5.445,2.259s3.94-0.755,5.444-2.259c0,0,44.754-45.061,59.726-60.031 c18.369-18.365,58.232-73.759,50.522-135.435C278.427,0.296,275.552-1.704,271.677,2.046z"/></symbol><symbol id="spear" viewBox="0 0 512.006 512.006"><g> <g> <path d="M463.532,10.605L452.926,0L319.519,133.409l-21.236-21.236l-21.21,21.21l28.996,28.996l-21.244,21.244l63.665,63.665 l21.244-21.244l28.996,28.997l21.21-21.21l-21.236-21.236l64.828-64.827C501.347,109.951,501.347,48.421,463.532,10.605z"/> </g> </g><g> <g> <rect x="1.514" y="313.402" transform="matrix(0.7071 -0.7071 0.7071 0.7071 -202.5675 227.8011)" width="344.364" height="90.038"/> </g> </g></symbol><symbol id="apple" viewBox="0 0 834.277 834.277"><path d="M326.253,831.194c28.94,11.474,64.358-12.77,90.886-12.77s64.594,18.728,85.64,12.77 c157.822-44.681,256.411-277.904,256.411-389.026c0-74.659-23.693-163.348-131.914-209.334 c-96.918-41.184-127.087-2.674-187.582,5.82c-0.333-8.656-0.826-17.307-1.479-25.949c20.434-15.906,61.406-41.836,126.921-58.151 C664.995,129.686,703.332,7.913,703.332,7.913S581.663-18.831,506.938,26.016c-42.501,25.507-65.042,80.093-76.584,122.434 c-5.162-30.444-12.346-60.542-21.532-89.987c-1.635-8.378-3.526-15.559-5.716-20.924c-15.569-38.151-60.24-19.599-60.24,0 c0,13.014,7.262,19.578,15.315,26.588c10.123,31.142,17.968,62.968,23.496,95.252c0.744,4.345,1.427,8.7,2.085,13.059 c0.282,1.868,0.548,3.738,0.814,5.609c0.042,0.302,0.076,0.56,0.108,0.79c0.083,0.642,0.168,1.284,0.249,1.927 c1.119,8.745,2.027,17.516,2.799,26.298c0.91,10.351,1.545,20.725,1.947,31.109c-61.418-9.045-103.016-43.477-182.739-11.146 C115.922,263.937,75.088,368.137,75.088,442.17C75.088,547.129,181.458,773.787,326.253,831.194z M175.043,364.905 c0-27.256,22.744-50,50-50c27.256,0,50,22.744,50,50s-22.744,50-50,50C197.788,414.905,175.043,392.161,175.043,364.905z"/></symbol><symbol id="wood" viewBox="0 0 59.987 59.987"><path d="M16.459,14.408c0.199-0.404,0.341-0.763,0.445-1.084l-0.635-0.635c-0.66-0.659-1.966-0.73-2.497-0.73 c-1.989,0-3.98,0.851-5.464,2.335c-2.751,2.751-4.107,8.012-2.881,9.238l0.379,0.379c1.331-0.115,3.892-1.455,6.694-4.257 C14.223,17.93,15.667,16.018,16.459,14.408z"/><path d="M54.958,7.499L54.958,7.499C54.957,2.874,48.06,0,36.958,0c-11.103,0-18,2.874-18,7.5l0.021,3.877 c0.142,0.478,0.171,1.09,0.01,1.864l0.012,2.182l-0.56-0.561c-0.064,0.144-0.112,0.277-0.187,0.43 c-0.898,1.825-2.439,3.877-4.34,5.777c-2.04,2.04-4.401,3.771-6.458,4.492l11.559,11.559V53.5c0,2.034,1.781,3.674,4.979,4.799 l-0.035-14.297c-0.001-0.552,0.445-1.001,0.998-1.002c0.001,0,0.001,0,0.002,0c0.551,0,0.999,0.446,1,0.998l0.036,14.888 c1.465,0.362,3.131,0.643,4.992,0.83l-0.029-8.713c-0.002-0.552,0.444-1.001,0.997-1.003c0.001,0,0.002,0,0.003,0 c0.551,0,0.998,0.445,1,0.997l0.029,8.883c0.947,0.059,1.945,0.09,2.971,0.105V56c0-0.552,0.448-1,1-1s1,0.448,1,1v3.987 c0.695-0.009,1.373-0.028,2.032-0.058l-0.032-10.926c-0.001-0.552,0.445-1.001,0.997-1.003c0.001,0,0.002,0,0.003,0 c0.551,0,0.999,0.446,1,0.997l0.032,10.809c1.433-0.114,2.774-0.274,3.995-0.487l-0.027-7.315 c-0.002-0.552,0.444-1.002,0.996-1.004c0.001,0,0.003,0,0.004,0c0.551,0,0.998,0.445,1,0.996l0.026,6.903 c4.478-1.097,7.03-2.966,7.03-5.4L54.958,7.499z M36.958,2c10.993,0,16,2.851,16,5.5c0,0.157-0.021,0.314-0.056,0.472 c-0.004,0.021-0.011,0.041-0.016,0.061C52.258,10.517,47.216,13,36.958,13c-10.993,0-16-2.851-16-5.5S25.965,2,36.958,2z M24.958,21c-0.552,0-1-0.448-1-1v-6.954c0.613,0.248,1.285,0.471,2,0.675V20C25.958,20.552,25.51,21,24.958,21z M29.958,28 c-0.552,0-1-0.448-1-1V14.388c0.642,0.109,1.305,0.207,2,0.287V27C30.958,27.552,30.51,28,29.958,28z M38.958,18 c-0.001,0-0.002,0-0.004,0c-0.552-0.002-0.999-0.452-0.996-1.004l0.008-2.013c0.684-0.011,1.351-0.034,2-0.067l-0.008,2.087 C39.956,17.555,39.508,18,38.958,18z M45.958,29c0,0-0.001,0-0.002,0c-0.552-0.001-0.999-0.45-0.998-1.002l0.031-13.615 c0.7-0.12,1.367-0.256,2.001-0.409l-0.031,14.029C46.957,28.554,46.509,29,45.958,29z M49.958,21c-0.552,0-1-0.448-1-1v-6.582 c0.732-0.247,1.394-0.524,2-0.823V20C50.958,20.552,50.51,21,49.958,21z"/></symbol><symbol id="stone" viewBox="0 0 961.801 961.801"><path d="M825.4,503.05c0,1.801,0.1,3.6,0.1,5.201c0,13.799-3.9,27.299-11.699,40.199c-6.801,11.199-16.5,22-29,32 c-22.4,18-53.801,33.9-93.201,47.199c-78,26.4-181.1,41-290.5,41c-107.9,0-191.5-14.199-248.3-42.299 c-9.6-4.701-18.4-9.9-26.4-15.4C49.9,652.751,0,695.751,0,728.251c0,90,215.3,163.1,480.9,163.1s480.901-73,480.901-163.1 C961.801,663.649,937.199,557.751,825.4,503.05z M742.6,808.351c-95.699,21.799-178.5,16.5-185-11.801 c-6.4-28.299,119.4-113.1,215.1-134.9c95.701-21.799,125.102,27.801,131.5,56C910.699,746.05,838.301,786.649,742.6,808.351z"/><path d="M151.8,597.649c48.9,28.201,129.6,46.102,249.2,46.102c220.6,0,399.401-60.701,399.401-135.5 c0-5.102-0.201-10.5-0.6-16.201c-2.701-36.7-15-83.6-49.201-122.799c-60.6,20-137.5,30.899-218.5,30.899 c-87.6,0-170.299-12.8-233-35.899c-9.601-3.5-18.6-7.301-27-11.2c-105.4,47.5-180.2,112.3-180.2,155.201 C91.9,542.45,110.5,573.751,151.8,597.649z M643.301,449.15c55.5-12.6,82.1,6.4,93.898,26c3.801,6.3,6.102,12.701,7.301,18.101 c5,22.1-50.5,53.5-123.9,70.199s-137.1,12.4-142.1-9.699C474.8,537.55,525.9,497.649,582.4,471.05 C602.699,461.35,623.801,453.55,643.301,449.15z"/><path d="M272.8,325.45c4.7,2.5,9.7,4.9,14.9,7.2c5.3,2.4,10.8,4.6,16.5,6.8c57.7,22,138.4,35.7,227.8,35.7 c75.1,0,144.1-9.7,198.4-25.8c4.699-1.4,9.4-2.9,13.9-4.4s8.898-3.1,13.199-4.7c56.699-21.2,91.6-50.3,91.6-82.5 c0-64.8-252.5-187.3-427.7-187.3c-175.2,0-206.5,122.6-206.5,187.4C214.9,283.05,236.4,306.35,272.8,325.45z M605.801,271.45 c3-16.4,14.398-33.9,45.299-42c12.301-3.2,26.5-4.6,41-4.6c43.201,0,88.801,12.4,92.301,26c4.5,17.4-28.301,41.1-74.201,54.2 c-2,0.6-4,1.1-6,1.6c-4.199,1.1-8.299,2-12.299,2.9c-8,1.6-15.801,2.8-23.1,3.5c-5.9,0.6-11.602,0.9-17,0.9 c-24.4,0-42-6-44.801-17.1v-0.1c-0.9-3.7-1.699-8.1-1.9-12.9C604.801,279.95,605,275.75,605.801,271.45z"/></symbol><symbol id="skull-and-bones" viewBox="0 0 264.695 264.695"><path style="fill:#030104;" d="M219.171,216.785c-4.762,0-10.322,2.3-16.672,6.881l-35.211-12.968l35.734-12.978 c6.003,3.888,11.558,5.833,16.682,5.833c5.639,0,9.347-2.917,11.117-8.733c0.351-1.235,0.527-2.57,0.527-3.981 c0-7.397-4.766-11.378-14.295-11.9c3.876-3.882,5.828-7.687,5.828-11.392c0-3.871-2.039-7.149-6.092-9.797 c-2.118-1.049-4.325-1.584-6.615-1.584c-7.769,0-13.064,6.258-15.887,18.797l-61.941,23.039l-61.94-22.504 c-2.823-12.885-8.125-19.332-15.885-19.332c-2.293,0-4.501,0.535-6.62,1.584c-3.876,2.647-5.82,5.926-5.82,9.797 c0,3.705,1.944,7.51,5.82,11.392c-9.701,0.522-14.555,4.503-14.555,11.901c0,1.41,0.179,2.746,0.526,3.98 c1.946,5.816,5.651,8.733,11.122,8.733c5.113,0,10.671-1.945,16.677-5.832l35.998,12.977l-35.476,12.698 c-6.175-4.406-11.637-6.611-16.402-6.611c-5.654,0-9.623,2.918-11.919,8.733c-0.348,1.235-0.526,2.553-0.526,3.975 c0,7.405,4.853,11.385,14.555,11.907c-3.876,3.883-5.82,7.688-5.82,11.393c0,3.869,1.944,7.134,5.82,9.797 c2.477,1.412,4.854,2.105,7.153,2.105c7.227,0,12.443-6.176,15.619-18.525l61.673-22.504l61.678,22.504 c3.178,12.35,8.475,18.525,15.882,18.525c2.121,0,4.407-0.693,6.884-2.105c4.052-2.663,6.092-5.928,6.092-9.797 c0-3.705-1.953-7.51-5.828-11.393c9.528-0.522,14.295-4.502,14.295-11.907c0-1.422-0.177-2.739-0.527-3.975 C228.702,219.702,224.82,216.785,219.171,216.785z"/><path style="fill:#030104;" d="M48.436,128.904c9.703,11.114,23.379,19.242,41.035,24.346v3.986c0,4.936,1.672,9.086,5.025,12.433 c3.35,3.358,7.498,5.211,12.441,5.563c5.116,0.357,8.905-0.528,11.378-2.646c3.879,2.817,8.204,4.229,12.974,4.229 c4.41,0,8.474-1.316,12.175-3.963c2.471,1.934,6.087,2.738,10.856,2.381c4.937-0.528,9.089-2.426,12.44-5.689 c3.35-3.281,5.025-7.371,5.025-12.307v-2.91c19.057-4.945,33.795-13.237,44.21-24.898c10.059-11.109,15.087-24.253,15.087-39.435 c0-3.359-0.355-6.886-1.063-10.597c-3.525-22.571-13.938-41.201-31.229-55.844C180.612,7.856,158.464,0,132.347,0 c-26.123,0-48.27,7.767-66.44,23.282C48.61,38.118,38.289,56.825,34.937,79.396c-0.709,3.711-1.064,7.238-1.064,10.597 C33.873,104.817,38.724,117.778,48.436,128.904L48.436,128.904z M152.865,60.749c5.206-6.085,11.514-9.13,18.922-9.13 c7.592,0,13.986,3.045,19.194,9.13c5.2,6.076,7.81,13.446,7.81,22.087c0,8.649-2.609,16.021-7.81,22.108 c-5.208,6.097-11.603,9.13-19.194,9.13c-7.408,0-13.716-3.033-18.922-9.13c-5.211-6.087-7.814-13.459-7.814-22.108 C145.05,74.195,147.654,66.825,152.865,60.749z M124.805,121.428c2.556-3.307,5.065-4.968,7.542-4.968 c2.47,0,4.802,1.831,7.012,5.509c2.205,3.662,3.317,7.145,3.317,10.469c0,5.062-3.361,7.581-10.067,7.581 c-4.414,0-7.677-1.136-9.792-3.396c-1.237-1.411-1.849-3.147-1.849-5.249C120.969,128.065,122.245,124.752,124.805,121.428z M71.465,60.749c5.295-6.085,11.65-9.13,19.059-9.13c7.406,0,13.762,3.045,19.06,9.13c5.296,6.076,7.948,13.446,7.948,22.087 c0,8.649-2.651,16.021-7.948,22.108c-5.297,6.097-11.654,9.13-19.06,9.13c-7.409,0-13.764-3.033-19.059-9.13 c-5.292-6.087-7.944-13.459-7.944-22.108C63.521,74.195,66.173,66.825,71.465,60.749z"/></symbol><symbol id="down-arrow" viewBox="0 0 284.929 284.929"><path d="M282.082,76.511l-14.274-14.273c-1.902-1.906-4.093-2.856-6.57-2.856c-2.471,0-4.661,0.95-6.563,2.856L142.466,174.441 L30.262,62.241c-1.903-1.906-4.093-2.856-6.567-2.856c-2.475,0-4.665,0.95-6.567,2.856L2.856,76.515C0.95,78.417,0,80.607,0,83.082 c0,2.473,0.953,4.663,2.856,6.565l133.043,133.046c1.902,1.903,4.093,2.854,6.567,2.854s4.661-0.951,6.562-2.854L282.082,89.647 c1.902-1.903,2.847-4.093,2.847-6.565C284.929,80.607,283.984,78.417,282.082,76.511z"/></symbol><symbol id="up-arrow" viewBox="0 0 284.929 284.929"><path d="M282.082,195.285L149.028,62.24c-1.901-1.903-4.088-2.856-6.562-2.856s-4.665,0.953-6.567,2.856L2.856,195.285 C0.95,197.191,0,199.378,0,201.853c0,2.474,0.953,4.664,2.856,6.566l14.272,14.271c1.903,1.903,4.093,2.854,6.567,2.854 c2.474,0,4.664-0.951,6.567-2.854l112.204-112.202l112.208,112.209c1.902,1.903,4.093,2.848,6.563,2.848 c2.478,0,4.668-0.951,6.57-2.848l14.274-14.277c1.902-1.902,2.847-4.093,2.847-6.566 C284.929,199.378,283.984,197.188,282.082,195.285z"/></symbol><symbol id="mute" viewBox="0 -14 445.05139 445"><path d="m121.601562 291.226562 166.398438 124.800782v-416.0000002l-166.398438 124.7968752c-2.769531 2.078125-6.140624 3.203125-9.601562 3.203125h-112v160h112c3.460938 0 6.832031 1.121094 9.601562 3.199218zm0 0"/><path d="m406.625 208.027344 33.933594-33.9375c6.066406-6.277344 5.976562-16.257813-.195313-22.429688s-16.148437-6.257812-22.425781-.195312l-33.9375 33.9375-33.9375-33.9375c-6.277344-6.0625-16.253906-5.976563-22.425781.195312s-6.261719 16.152344-.195313 22.429688l33.933594 33.9375-33.933594 33.933594c-4.160156 4.019531-5.828125 9.96875-4.363281 15.5625s5.832031 9.960937 11.425781 11.425781c5.59375 1.464843 11.542969-.203125 15.558594-4.363281l33.9375-33.9375 33.9375 33.9375c6.277344 6.0625 16.253906 5.976562 22.425781-.195313s6.261719-16.152344.195313-22.429687zm0 0"/></symbol><symbol id="speaker" viewBox="0 -15 447.99783 447"><path d="m121.601562 291.699219 166.398438 124.800781v-416l-166.398438 124.800781c-2.769531 2.074219-6.140624 3.199219-9.601562 3.199219h-112v160h112c3.460938 0 6.832031 1.121094 9.601562 3.199219zm0 0"/><path d="m389.824219 326.324219c-6.46875-.003907-12.304688-3.902344-14.777344-9.878907-2.476563-5.976562-1.109375-12.859374 3.464844-17.433593 49.992187-49.988281 49.992187-131.039063 0-181.023438-4.160157-4.019531-5.828125-9.96875-4.363281-15.5625 1.464843-5.59375 5.832031-9.960937 11.425781-11.425781 5.597656-1.464844 11.542969.203125 15.5625 4.363281 62.480469 62.484375 62.480469 163.789063 0 226.273438-3 3-7.070313 4.683593-11.3125 4.6875zm0 0"/><path d="m344.574219 281.058594c-6.46875 0-12.300781-3.898438-14.777344-9.878906-2.476563-5.976563-1.105469-12.855469 3.46875-17.433594 24.984375-24.992188 24.984375-65.503906 0-90.496094-6.066406-6.277344-5.976563-16.257812.191406-22.429688 6.171875-6.171874 16.152344-6.257812 22.429688-.195312 37.476562 37.488281 37.476562 98.257812 0 135.746094-3 3-7.066407 4.6875-11.3125 4.6875zm0 0"/></symbol><symbol id="comment-black-oval-bubble-shape" viewBox="0 0 511.626 511.626"><path d="M477.371,127.44c-22.843-28.074-53.871-50.249-93.076-66.523c-39.204-16.272-82.035-24.41-128.478-24.41 c-34.643,0-67.762,4.805-99.357,14.417c-31.595,9.611-58.812,22.602-81.653,38.97c-22.845,16.37-41.018,35.832-54.534,58.385 C6.757,170.833,0,194.484,0,219.228c0,28.549,8.61,55.3,25.837,80.234c17.227,24.931,40.778,45.871,70.664,62.811 c-2.096,7.611-4.57,14.846-7.426,21.693c-2.855,6.852-5.424,12.474-7.708,16.851c-2.286,4.377-5.376,9.233-9.281,14.562 c-3.899,5.328-6.849,9.089-8.848,11.275c-1.997,2.19-5.28,5.812-9.851,10.849c-4.565,5.048-7.517,8.329-8.848,9.855 c-0.193,0.089-0.953,0.952-2.285,2.567c-1.331,1.615-1.999,2.423-1.999,2.423l-1.713,2.566c-0.953,1.431-1.381,2.334-1.287,2.707 c0.096,0.373-0.094,1.331-0.57,2.851c-0.477,1.526-0.428,2.669,0.142,3.433v0.284c0.765,3.429,2.43,6.187,4.998,8.277 c2.568,2.092,5.474,2.95,8.708,2.563c12.375-1.522,23.223-3.606,32.548-6.276c49.87-12.758,93.649-35.782,131.334-69.097 c14.272,1.522,28.072,2.286,41.396,2.286c46.442,0,89.271-8.138,128.479-24.417c39.208-16.272,70.233-38.448,93.072-66.517 c22.843-28.062,34.263-58.663,34.263-91.781C511.626,186.108,500.207,155.509,477.371,127.44z"/></symbol><symbol id="placeholder-on-map-paper-in-perspective" viewBox="0 0 612 612"><path d="M516.316,337.52l94.233,193.581c3.832,7.873-0.196,14.314-8.952,14.314H10.402c-8.756,0-12.785-6.441-8.952-14.314 L95.684,337.52c1.499-3.079,5.528-5.599,8.952-5.599h80.801c2.49,0,5.853,1.559,7.483,3.442 c5.482,6.335,11.066,12.524,16.634,18.65c5.288,5.815,10.604,11.706,15.878,17.735h-95.891c-3.425,0-7.454,2.519-8.952,5.599 L58.163,505.589h495.67l-62.421-128.242c-1.498-3.08-5.527-5.599-8.953-5.599h-96.108c5.273-6.029,10.591-11.92,15.879-17.735 c5.585-6.144,11.2-12.321,16.695-18.658c1.628-1.878,4.984-3.434,7.47-3.434h80.971 C510.789,331.921,514.817,334.439,516.316,337.52z M444.541,205.228c0,105.776-88.058,125.614-129.472,227.265 c-3.365,8.26-14.994,8.218-18.36-0.04c-37.359-91.651-112.638-116.784-127.041-198.432 c-14.181-80.379,41.471-159.115,122.729-166.796C375.037,59.413,444.541,124.204,444.541,205.228z M379.114,205.228 c0-40.436-32.779-73.216-73.216-73.216s-73.216,32.78-73.216,73.216c0,40.437,32.779,73.216,73.216,73.216 S379.114,245.665,379.114,205.228z"/></symbol><symbol id="share" viewBox="0 0 59 59"><path d="M47,39c-2.671,0-5.182,1.04-7.071,2.929c-0.524,0.524-0.975,1.1-1.365,1.709l-17.28-10.489 C21.741,32.005,22,30.761,22,29.456c0-1.305-0.259-2.549-0.715-3.693l17.284-10.409C40.345,18.142,43.456,20,47,20 c5.514,0,10-4.486,10-10S52.514,0,47,0S37,4.486,37,10c0,1.256,0.243,2.454,0.667,3.562L20.361,23.985 c-1.788-2.724-4.866-4.529-8.361-4.529c-5.514,0-10,4.486-10,10s4.486,10,10,10c3.495,0,6.572-1.805,8.36-4.529L37.664,45.43 C37.234,46.556,37,47.759,37,49c0,2.671,1.04,5.183,2.929,7.071C41.818,57.96,44.329,59,47,59s5.182-1.04,7.071-2.929 C55.96,54.183,57,51.671,57,49s-1.04-5.183-2.929-7.071C52.182,40.04,49.671,39,47,39z"/></symbol><symbol id="sword" viewBox="0 0 512 512"><path d="M512,10.697c0-5.385-4.021-9.926-9.354-10.583c-5.854-0.812-10.354,2.781-11.667,8 c-6.333,25.373-86.917,60.725-142.125,77.714c-4.458,1.385-7.521,5.521-7.521,10.197c0,53.985-108.432,164.502-205.259,246.393 c-4.999-10.014-8.074-21.142-8.074-33.072c0-5.895-4.771-10.666-10.667-10.666H74.667C68.771,298.68,64,303.45,64,309.346 c0,28.086,8.452,54.21,22.865,76.072l-48.66,41.706C16.802,429.391,0,447.335,0,469.336C0,492.866,19.146,512,42.667,512 c21.686,0,39.453-16.324,42.125-37.302l51.168-43.859c19.807,10.919,42.536,17.166,66.707,17.166 c5.896,0,10.667-4.771,10.667-10.666v-42.664c0-5.895-4.771-10.666-10.667-10.666c-2.555,0-4.971-0.503-7.461-0.754 C508.137,199.618,512,18.492,512,10.697z"/></symbol><symbol id="bow" viewBox="0 0 512.00077 512"><path d="m11.625 90.570312c12.742188 12.738282 31.789062 16.644532 48.527344 9.953126l2.753906-1.097657 143.015625 143.011719 21.214844-21.210938-133.503907-133.503906c48.023438-17.691406 99.464844-21.160156 149.410157-9.128906 23.171875 5.585938 41.992187 20.71875 52.941406 42.5625 11.128906 22.203125 12 47.835938 2.878906 70.765625l-139.417969 139.417969-54.84375-18.28125c-5.398437-1.792969-11.332031-.390625-15.355468 3.625l-84.851563 84.855468c-3.675781 3.675782-5.175781 8.992188-3.988281 14.054688 1.160156 4.96875 4.828125 9.09375 9.851562 10.785156l56.527344 18.839844 18.839844 56.523438c1.6875 5.015624 5.808594 8.691406 10.78125 9.851562 5.066406 1.191406 10.378906-.3125 14.058594-3.988281l84.851562-84.851563c4.015625-4.019531 5.417969-9.957031 3.625-15.351562l-18.28125-54.847656 139.417969-139.417969c22.929687-9.121094 48.5625-8.25 70.765625 2.878906 21.84375 10.96875 36.96875 29.757813 42.5625 52.917969 12.03125 49.964844 8.5625 101.410156-9.128906 149.433594l-133.503906-133.5-21.210938 21.210937 143.011719 143.011719-1.109375 2.765625c-6.679688 16.730469-2.773438 35.777343 9.96875 48.519531l7.226562 7.230469c5.863282 5.859375 15.351563 5.859375 21.214844 0 5.863281-5.863281 5.863281-15.351563 0-21.214844l-7.230469-7.230469c-9.054687-9.054687-.449219-25.046875 1.445313-28.089844 3.351562-13.464843 45.007812-78.984374 18.484375-189.160156-7.59375-31.433594-28.816407-57.984375-58.296875-72.710937-15.207032-7.625-31.644532-11.496094-48.175782-12.085938l83.585938-83.585937h36.210938c6.464843 0 12.191406-4.132813 14.230468-10.257813l21.214844-63.636719c3.585938-10.792968-8.183594-22.558593-18.976562-18.976562l-63.636719 21.214844c-6.125 2.039062-10.257813 7.765625-10.257813 14.230468v36.214844l-83.585937 83.585938c-.589844-16.535156-4.457031-32.972656-12.082031-48.179688-14.730469-29.476562-41.277344-50.703125-72.734376-58.296875-58.371093-14.054687-118.6875-9.691406-174.410156 12.597657-3.09375 1.234374-29.734375 11.882812-26.640625 10.648437-5.582031 2.226563-11.933593.929687-16.179687-3.316406l-7.230469-7.226563c-5.863281-5.863281-15.351563-5.863281-21.214844 0-5.859375 5.859375-5.859375 15.347656 0 21.210938zm0 0"/></symbol><symbol id="dart" viewBox="0 0 504.92379 504"><path d="m214.972656 252.402344-2.132812-20.265625-76 76-10.132813 50.398437-32.535156-32.53125-30.132813 30.132813 27.464844 27.464843-91.4648435 90.933594 30.1328125 30.132813 91.199219-91.199219 27.46875 27.46875 30.132812-30.136719-32.535156-32.53125 50.402344-10.132812 76-76-20.265625-2.132813c-19.734375-2.402344-35.203125-17.867187-37.601563-37.601562zm0 0"/><path d="m236.039062 250.003906c0 1.066406.265626 2.132813.535157 3.199219l128.796875-128.800781-11.464844-105.332032c-2.132812-17.066406-23.734375-24.800781-36.265625-12.800781l-90.402344 90.398438c-4.53125 4.535156-6.933593 10.933593-6.132812 17.335937zm0 0"/><path d="m503.773438 165.203125c-2.667969-7.734375-9.601563-13.332031-17.867188-14.132813l-105.332031-11.734374-128.800781 128.800781c1.066406.265625 2.132812.53125 3.199218.53125l135.734375 15.203125h2.398438c5.601562 0 11.199219-2.136719 15.199219-6.136719l90.402343-90.398437c5.867188-5.867188 7.730469-14.398438 5.066407-22.132813zm0 0"/></symbol><symbol id="tent" viewBox="0 0 45.548 45.547"><path d="M0.364,41.487L20.822,8.418l-3.579-5.536c-0.479-0.741-0.267-1.729,0.474-2.208c0.741-0.479,1.731-0.268,2.211,0.475 l2.844,4.403l2.848-4.404c0.479-0.741,1.469-0.953,2.209-0.474c0.741,0.479,0.953,1.468,0.476,2.209l-3.578,5.536l20.457,33.069 c0.461,0.735,0.486,1.656,0.065,2.415c-0.42,0.76-1.22,1.225-2.087,1.225h-9.055c-0.817,0-1.579-0.417-2.021-1.104l-7.693-12.007 c-0.354-0.552-0.964-0.885-1.619-0.885c-0.654,0-1.265,0.333-1.619,0.886l-7.689,12.006c-0.44,0.689-1.202,1.106-2.021,1.106 H2.387c-0.868,0-1.668-0.465-2.088-1.226S-0.097,42.222,0.364,41.487z"/></symbol><symbol id="wall" viewBox="0 0 209.217 209.216"><polygon points="104.605,124.953 54.991,124.953 54.991,84.259 104.605,84.259 154.217,84.259 154.217,124.953 "/><rect y="84.259" width="44.24" height="40.694"/><rect x="164.968" y="84.259" width="44.243" height="40.694"/><polygon points="209.217,73.509 159.593,73.509 109.98,73.509 109.98,22.174 209.217,22.174 "/><polygon points="0,22.174 99.229,22.174 99.229,73.509 49.615,73.509 0,73.509 "/><polygon points="0,135.704 49.615,135.704 99.229,135.704 99.229,187.042 0,187.042 "/><polygon points="209.217,187.042 109.98,187.042 109.98,135.704 159.593,135.704 209.217,135.704 "/></symbol><symbol id="door" viewBox="0 0 492.5 492.5"><path d="M285.048,21.72L164.234,0v21.72H79.292v433.358h31.403V53.123h53.539V492.5l208.15-37.422v-61.235h9.421v61.235h31.403 V21.72H285.048z M202.526,263.129c-6.997,0-12.67-7.381-12.67-16.486c0-9.104,5.673-16.485,12.67-16.485s12.67,7.381,12.67,16.485 C215.196,255.748,209.523,263.129,202.526,263.129z M381.805,344.646h-9.421V142.621h9.421V344.646z M381.805,93.423h-9.421v-40.3 h9.421V93.423z"/></symbol><symbol id="monkey" viewBox="0 0 512 512"><g> <g> <path d="M243.906,106.479c-11.85,4.643-20.267,16.183-20.267,29.659c0,13.476,8.418,25.015,20.267,29.659 c-2.278-9.52-3.493-19.45-3.493-29.659S241.628,115.999,243.906,106.479z"/> </g> </g><g> <g> <path d="M173.623,359.705c-31.268,0-56.708,25.439-56.708,56.708v26.559H102.4c-7.738,0-14.034-6.295-14.034-14.033V190.13 c0-24.362-19.82-44.182-44.182-44.182C19.821,145.948,0,165.768,0,190.13v30.695h30.149V190.13 c0-7.738,6.296-14.033,14.034-14.033c7.737,0,14.033,6.295,14.033,14.033v238.808c0,24.362,19.821,44.182,44.183,44.182h14.515 h12.533h44.175c31.268,0,56.708-25.439,56.708-56.708C230.331,385.142,204.891,359.705,173.623,359.705z"/> </g> </g><g> <g> <path d="M367.819,38.879c-19.002,0-36.745,5.483-51.742,14.943c1.086-0.037,2.173-0.076,3.264-0.076 c17.307,0,33.867,4.584,48.477,13.34c14.612-8.758,31.171-13.34,48.477-13.34c1.091,0,2.178,0.039,3.264,0.076 C404.564,44.362,386.821,38.879,367.819,38.879z"/> </g> </g><g> <g> <path d="M367.821,263.544c-47.763,0-89.462-26.421-111.272-65.41h-1.062h-37.918c-55.501,0-100.653,45.153-100.653,100.652v51.889 c15.227-13.154,35.054-21.119,56.708-21.119c47.893,0,86.857,38.964,86.857,86.857c0,21.653-7.966,41.481-21.119,56.708h36.584 v-170.19h30.149v170.19h36.647V356.885h30.149V473.12h36.647V256.522C396.46,261.067,382.425,263.544,367.821,263.544z"/> </g> </g><g> <g> <path d="M491.733,106.479c2.278,9.52,3.493,19.45,3.493,29.659s-1.215,20.138-3.493,29.659 C503.582,161.153,512,149.613,512,136.137C512,122.662,503.582,111.122,491.733,106.479z"/> </g> </g><g> <g> <path d="M457.661,98.903c-11.597-9.699-26.167-15.008-41.364-15.008c-14.342,0-27.928,4.617-39.29,13.352l-9.188,7.063 l-9.188-7.064c-11.361-8.734-24.946-13.351-39.289-13.351c-15.196,0-29.767,5.308-41.366,15.008 c-4.774,11.475-7.415,24.051-7.415,37.234c0,53.628,43.63,97.257,97.257,97.257c53.628,0,97.258-43.63,97.258-97.257 C465.075,122.953,462.434,110.377,457.661,98.903z M328.415,161.924c-8.325,0-15.074-6.749-15.074-15.074 s6.749-15.074,15.074-15.074c8.325,0,15.074,6.749,15.074,15.074S336.741,161.924,328.415,161.924z M407.222,161.924 c-8.325,0-15.074-6.749-15.074-15.074s6.749-15.074,15.074-15.074s15.074,6.749,15.074,15.074S415.549,161.924,407.222,161.924z"/> </g> </g></symbol><symbol id="settings" viewBox="0 0 54 54"><path d="M51.22,21h-5.052c-0.812,0-1.481-0.447-1.792-1.197s-0.153-1.54,0.42-2.114l3.572-3.571 c0.525-0.525,0.814-1.224,0.814-1.966c0-0.743-0.289-1.441-0.814-1.967l-4.553-4.553c-1.05-1.05-2.881-1.052-3.933,0l-3.571,3.571 c-0.475,0.475-0.997,0.574-1.352,0.574c-0.5,0-0.997-0.196-1.364-0.539C33.324,8.984,33,8.534,33,7.832V2.78 C33,1.247,31.753,0,30.22,0H23.78C22.247,0,21,1.247,21,2.78v5.052c0,1.218-0.997,1.945-1.961,1.945c-0.354,0-0.876-0.1-1.351-0.574 l-3.571-3.571c-1.052-1.052-2.883-1.05-3.933,0l-4.553,4.553c-0.525,0.525-0.814,1.224-0.814,1.967c0,0.742,0.289,1.44,0.814,1.966 l3.572,3.571c0.573,0.574,0.73,1.364,0.42,2.114S8.644,21,7.832,21H2.78C1.247,21,0,22.247,0,23.78v6.438C0,31.752,1.247,33,2.78,33 h5.052c0.812,0,1.481,0.447,1.792,1.197s0.153,1.54-0.42,2.114l-3.572,3.571c-0.525,0.525-0.814,1.224-0.814,1.966 c0,0.743,0.289,1.441,0.814,1.967l4.553,4.553c1.051,1.051,2.881,1.053,3.933,0l3.571-3.571c0.475-0.475,0.997-0.574,1.352-0.574 c0.963,0,1.96,0.728,1.96,1.945v5.051C21,52.752,22.247,54,23.78,54h6.439c1.533,0,2.78-1.248,2.78-2.781v-5.051 c0-1.218,0.997-1.945,1.96-1.945c0.354,0,0.877,0.1,1.352,0.574l3.571,3.571c1.052,1.052,2.883,1.05,3.933,0l4.553-4.553 c0.525-0.525,0.814-1.224,0.814-1.967c0-0.742-0.289-1.44-0.814-1.966l-3.572-3.571c-0.573-0.574-0.73-1.364-0.42-2.114 S45.356,33,46.168,33h5.052c1.533,0,2.78-1.248,2.78-2.781V23.78C54,22.247,52.753,21,51.22,21z M34,27c0,3.859-3.141,7-7,7 s-7-3.141-7-7s3.141-7,7-7S34,23.141,34,27z"/></symbol><symbol id="trophy" viewBox="0 0 512.00001 512"><path d="M 497 36.953125 L 431.296875 36.953125 C 431.535156 29.675781 431.667969 22.355469 431.667969 15 C 431.667969 6.714844 424.949219 0 416.667969 0 L 95.335938 0 C 87.050781 0 80.335938 6.714844 80.335938 15 C 80.335938 22.355469 80.464844 29.675781 80.703125 36.953125 L 15 36.953125 C 6.714844 36.953125 0 43.667969 0 51.953125 C 0 119.164062 17.566406 182.574219 49.460938 230.507812 C 80.988281 277.894531 122.984375 305.074219 168.347656 307.71875 C 178.632812 318.910156 189.507812 328.035156 200.832031 334.996094 L 200.832031 401.664062 L 175.667969 401.664062 C 145.246094 401.664062 120.5 426.414062 120.5 456.832031 L 120.5 481.996094 L 119.433594 481.996094 C 111.148438 481.996094 104.433594 488.714844 104.433594 496.996094 C 104.433594 505.28125 111.148438 511.996094 119.433594 511.996094 L 392.566406 511.996094 C 400.851562 511.996094 407.566406 505.28125 407.566406 496.996094 C 407.566406 488.714844 400.851562 481.996094 392.566406 481.996094 L 391.5 481.996094 L 391.5 456.832031 C 391.5 426.414062 366.75 401.664062 336.332031 401.664062 L 311.167969 401.664062 L 311.167969 334.996094 C 322.492188 328.035156 333.363281 318.910156 343.648438 307.71875 C 389.015625 305.074219 431.007812 277.894531 462.539062 230.507812 C 494.433594 182.574219 512 119.164062 512 51.953125 C 512 43.667969 505.28125 36.953125 497 36.953125 Z M 74.4375 213.890625 C 48.128906 174.351562 32.671875 122.644531 30.316406 66.953125 L 82.378906 66.953125 C 87.789062 135.414062 103.859375 198.691406 128.976562 248.925781 C 132.976562 256.925781 137.160156 264.480469 141.5 271.601562 C 116.550781 262.179688 93.460938 242.484375 74.4375 213.890625 Z M 437.5625 213.890625 C 418.539062 242.484375 395.449219 262.179688 370.5 271.601562 C 374.84375 264.480469 379.023438 256.925781 383.023438 248.925781 C 408.140625 198.691406 424.207031 135.414062 429.621094 66.953125 L 481.683594 66.953125 C 479.328125 122.644531 463.871094 174.351562 437.5625 213.890625 Z M 437.5625 213.890625 " style=" stroke:none;fill-rule:nonzero;fill:rgb(0%,0%,0%);fill-opacity:1;"/></symbol><symbol id="leaf" viewBox="0 0 551.391 551.391"><path d="M413.695,0c0,0-45.366,44.014-94.43,61.759C-44.068,193.178,109.165,449.277,114.164,450.121 c0,0,20.374-35.48,47.896-55.717c174.644-128.389,210.14-276.171,210.14-276.171s-39.19,177.829-194.562,288.479 c-34.316,24.426-57.552,84.568-67.388,144.679c0,0,24.325-9.828,34.785-12.49c4.079-26.618,12.607-52.106,27.025-74.875 c217.151,25.854,288.272-149.123,297.563-210.136C491.552,109.79,413.695,0,413.695,0z"/></symbol><symbol id="nunchaku" viewBox="0 0 512 512.0005"><path d="m307.203125 35.089844-29 29c-16.699219-7.894532-37.078125-5.347656-50.890625 8.464844l-31.820312 31.820312 63.640624 63.640625 31.816407-31.820313c13.8125-13.8125 16.363281-34.191406 8.464843-50.890624l29-29c35.097657-35.09375 92.1875-35.09375 127.28125 0 35.09375 35.089843 35.09375 92.183593 0 127.277343l-29 29c-16.699218-7.894531-37.082031-5.34375-50.890624 8.464844l-31.820313 31.820313 63.640625 63.640624 31.820312-31.820312c13.808594-13.8125 16.359376-34.191406 8.464844-50.890625l29-29c46.785156-46.789063 46.785156-122.921875 0-169.707031-46.789062-46.785156-122.917968-46.785156-169.707031 0zm0 0"/><path d="m153.0625 146.800781 21.214844-21.210937 63.636718 63.640625-21.210937 21.210937zm0 0"/><path d="m76.820312 350.328125 118.671876-118.671875-63.636719-63.640625-118.675781 118.671875c-17.574219 17.574219-17.574219 46.066406 0 63.640625 17.574218 17.574219 46.066406 17.574219 63.640624 0zm0 0"/><path d="m301.554688 295.300781 21.214843-21.210937 63.636719 63.636718-21.210938 21.214844zm0 0"/><path d="m161.675781 435.179688c-17.574219 17.574218-17.574219 46.066406 0 63.640624 17.570313 17.574219 46.0625 17.574219 63.636719 0l118.671875-118.671874-63.636719-63.640626zm0 0"/></symbol></svg>