<?xml version="1.0" encoding="UTF-8" standalone="no"?>
<!-- Created with Inkscape (http://www.inkscape.org/) -->

<svg
   xmlns:dc="http://purl.org/dc/elements/1.1/"
   xmlns:cc="http://creativecommons.org/ns#"
   xmlns:rdf="http://www.w3.org/1999/02/22-rdf-syntax-ns#"
   xmlns:svg="http://www.w3.org/2000/svg"
   xmlns="http://www.w3.org/2000/svg"
   xmlns:sodipodi="http://sodipodi.sourceforge.net/DTD/sodipodi-0.dtd"
   xmlns:inkscape="http://www.inkscape.org/namespaces/inkscape"
   width="176.48909mm"
   height="156.44621mm"
   viewBox="0 0 176.48909 156.44621"
   version="1.1"
   id="svg8"
   sodipodi:docname="icon.svg"
   inkscape:version="0.92.3 (unknown)">
  <defs
     id="defs2">
    <marker
       inkscape:stockid="Arrow1Lstart"
       orient="auto"
       refY="0"
       refX="0"
       id="Arrow1Lstart"
       style="overflow:visible"
       inkscape:isstock="true">
      <path
         id="path4646"
         d="M 0,0 5,-5 -12.5,0 5,5 Z"
         style="fill:#000000;fill-opacity:1;fill-rule:evenodd;stroke:none;stroke-width:1.00000003pt;stroke-opacity:1"
         transform="matrix(0.8,0,0,0.8,10,0)"
         inkscape:connector-curvature="0" />
    </marker>
    <inkscape:path-effect
       effect="sketch"
       id="path-effect132"
       is_visible="true"
       nbiter_approxstrokes="1"
       strokelength="58"
       strokelength_rdm="0.3;1"
       strokeoverlap="0.3"
       strokeoverlap_rdm="0.3;1"
       ends_tolerance="0.1;1"
       parallel_offset="5;1"
       tremble_size="5;1"
       tremble_frequency="1"
       nbtangents="5"
       tgt_places_rdmness="1;1"
       tgtscale="10"
       tgtlength="100"
       tgtlength_rdm="0.3;1" />
  </defs>
  <sodipodi:namedview
     id="base"
     pagecolor="#ffffff"
     bordercolor="#666666"
     borderopacity="1.0"
     inkscape:pageopacity="0.0"
     inkscape:pageshadow="2"
     inkscape:zoom="0.35"
     inkscape:cx="20.622338"
     inkscape:cy="521.67137"
     inkscape:document-units="mm"
     inkscape:current-layer="g35"
     showgrid="false"
     inkscape:window-width="1366"
     inkscape:window-height="707"
     inkscape:window-x="0"
     inkscape:window-y="182"
     inkscape:window-maximized="1" />
  <metadata
     id="metadata5">
    <rdf:RDF>
      <cc:Work
         rdf:about="">
        <dc:format>image/svg+xml</dc:format>
        <dc:type
           rdf:resource="http://purl.org/dc/dcmitype/StillImage" />
      </cc:Work>
    </rdf:RDF>
  </metadata>
  <g
     inkscape:label="Capa 1"
     inkscape:groupmode="layer"
     id="layer1"
     transform="translate(54.06917,9.4140717)">
    <g
       id="g35"
       transform="matrix(0.26458333,0,0,0.26458333,14.07984,50.999428)">
      <g
         id="g14"
         data-name="Layer1 0 FILL"
         inkscape:export-xdpi="72"
         inkscape:export-ydpi="72">
        <path
           id="path12"
           transform="translate(-9.13,-15.03)"
           d="m 60,43.15 a 5.41,5.41 0 0 0 -0.3,1.9 5,5 0 0 0 0.3,1.85 q 0.35,0.8 0.8,0.8 0.45,0 0.75,-0.8 A 4.36,4.36 0 0 0 61.9,45 4.72,4.72 0 0 0 61.55,43.1 q -0.3,-0.75 -0.75,-0.75 -0.45,0 -0.8,0.75 M 32.25,46.9 A 4.36,4.36 0 0 0 32.6,45 4.72,4.72 0 0 0 32.25,43.1 q -0.3,-0.75 -0.75,-0.75 -0.45,0 -0.8,0.75 a 5.41,5.41 0 0 0 -0.3,1.9 5,5 0 0 0 0.3,1.85 q 0.35,0.8 0.8,0.8 0.45,0 0.75,-0.75 z"
           inkscape:connector-curvature="0" />
      </g>
      <path
         id="path16"
         d="m 235.00085,362.92398 a 139.33445,139.33445 0 0 1 -26.3737,-2.92139 l -20.69327,-2.75909 c -16.22996,-3.246 -25.72451,-7.62812 -29.94431,-13.38972 a 4.057497,4.057497 0 0 1 -0.6492,-1.37953 84.39594,84.39594 0 0 1 -30.6747,5.03125 80.338443,80.338443 0 0 1 -34.975624,-8.92646 59.969813,59.969813 0 0 1 -13.470882,-8.76424 l -0.649166,-0.73032 q -1.379568,-2.02873 -2.596804,-3.97638 a 159.13504,159.13504 0 0 1 -46.174347,2.51568 l -33.3526071,-2.27222 -1.9476153,3.16485 a 4.3009472,4.3009472 0 0 1 -0.7303322,0.89267 59.645205,59.645205 0 0 1 -13.4709044,8.76416 80.41959,80.41959 0 0 1 -34.813318,8.92654 84.314793,84.314793 0 0 1 -30.67468,-5.03132 4.1386472,4.1386472 0 0 1 -0.649198,1.37957 c -4.138653,5.76165 -13.876642,10.14372 -29.700882,13.38973 l -20.93668,2.92141 c -23.12774,4.54438 -40.08808,3.73284 -51.53021,-2.43448 a 4.057497,4.057497 0 0 1 -1.05495,-0.8115 l -8.92651,-9.73802 c -6.41085,-9.41343 -11.19868,-25.39992 -14.85044,-49.17687 l -4.05748,-32.45999 a 34.082978,34.082978 0 0 1 10.87408,-29.78202 l 12.74053,-9.16996 a 44.957067,44.957067 0 0 1 40.57497,-4.46322 56.318064,56.318064 0 0 0 26.61719,3.48946 196.62632,196.62632 0 0 1 9.16994,-77.09246 93.809334,93.809334 0 0 1 -33.02802,-27.42869 l -6.00508,-13.14631 a 4.1386472,4.1386472 0 0 1 0,-1.13607 c -1.37956,-10.387219 -2.51567,-20.936696 -3.32716,-31.405036 a 60.700161,60.700161 0 0 1 -48.12192,-5.112444 c -17.52839,-9.413411 -31.64848,-28.402496 -41.87338,-56.561516 a 100.46363,100.46363 0 0 1 0.97381,-77.498194 c 10.79294,-23.533492 40.57497,-28.889382 88.0477,-16.229995 5.84279,-64.189615 42.84716,-108.659785 110.282761,-132.112105 a 290.02991,290.02991 0 0 1 67.111005,-15.01274 l 11.523288,-0.8115 c 9.169937,0 18.258752,0 27.185237,1.21725 a 290.19219,290.19219 0 0 1 67.516789,15.09389 c 67.19209,23.61463 104.27761,68.08481 110.20161,132.274408 47.63498,-12.983986 77.25472,-7.54695 88.12885,16.229984 a 99.408682,99.408682 0 0 1 0.97372,77.335905 C 311.6064,41.975968 297.7298,61.046219 280.44483,70.621893 a 60.943608,60.943608 0 0 1 -48.20305,4.869016 c -0.81156,10.468338 -1.86646,21.017822 -3.32717,31.405041 a 4.3820969,4.3820969 0 0 1 0,1.13609 l -6.00509,12.65938 a 93.322433,93.322433 0 0 1 -33.43377,28.15903 128.46037,128.46037 0 0 1 6.08623,23.2089 c 1.62301,2.92141 5.03127,6.16738 14.20127,4.86897 9.1699,-1.2984 23.12771,-4.13863 41.95451,-8.11497 40.575,-13.87665 66.13724,-21.2613 76.93013,-22.3974 a 107.03678,107.03678 0 0 1 31.64846,1.2984 66.86755,66.86755 0 0 1 32.94693,19.9629 48.121917,48.121917 0 0 1 16.22998,36.35514 50.312963,50.312963 0 0 1 -12.984,32.45999 l -16.7169,17.5284 a 4.057497,4.057497 0 0 1 -1.29837,0.89264 c -13.47092,5.92394 -22.64086,6.41085 -28.24018,1.62299 -5.59938,-4.78784 -6.41088,-14.03892 -2.5157,-28.3213 a 4.057497,4.057497 0 0 1 3.89523,-3.00254 22.235084,22.235084 0 0 0 17.12266,-10.22492 c 3.16479,-5.35586 -2.84024,-15.49963 -8.60193,-23.04659 -8.11496,-11.03636 -20.53091,-13.6332 -37.2478,-8.11496 l -28.64595,11.27977 a 176.41998,176.41998 0 0 1 -60.53784,18.90799 l -35.13796,2.19106 v 9.81912 a 57.535308,57.535308 0 0 0 26.69835,-3.24598 44.551318,44.551318 0 0 1 40.57497,4.13866 l 12.33482,9.00763 a 34.326426,34.326426 0 0 1 11.36096,30.18776 l -4.21978,31.56736 c -3.65175,23.93921 -8.11498,39.84462 -14.44468,48.68996 l -9.25112,10.22485 a 4.2197971,4.2197971 0 0 1 -1.05494,0.81154 53.153213,53.153213 0 0 1 -25.56225,5.51816 z m -69.95124,-23.61459 c 2.19106,2.75907 8.11499,6.57315 24.345,9.90029 l 20.44977,2.75906 c 20.93669,4.05755 36.3552,3.65174 46.01204,-1.29839 l 8.11496,-9.25109 a 125.62011,125.62011 0 0 0 13.22748,-44.87591 l 4.05746,-31.97311 a 26.049132,26.049132 0 0 0 -8.6019,-22.96541 l -11.68555,-8.11498 a 36.436324,36.436324 0 0 0 -33.2715,-3.08375 66.705254,66.705254 0 0 1 -29.53861,3.73296 447.78536,447.78536 0 0 1 -8.11493,64.18959 41.548769,41.548769 0 0 1 -24.99422,40.98074 z m -349.5128,11.03638 c 9.65684,4.86897 25.07532,5.35585 45.84971,1.29839 l 20.93669,-2.84027 c 16.22998,-3.246 22.072781,-7.06 24.344977,-9.81917 a 41.548769,41.548769 0 0 1 -25.318777,-41.38642 447.70426,447.70426 0 0 1 -8.11499,-64.18963 65.812606,65.812606 0 0 1 -29.45744,-3.89516 36.679774,36.679774 0 0 0 -33.43378,3.32713 l -11.92903,8.76419 a 25.805683,25.805683 0 0 0 -8.115,22.55969 l 4.0575,32.45998 a 122.53641,122.53641 0 0 0 13.14628,45.28167 z M 84.305415,324.13426 a 54.451612,54.451612 0 0 0 11.361003,7.14126 72.3046,72.3046 0 0 0 31.567322,8.11501 75.550599,75.550599 0 0 0 28.88939,-5.03126 c 18.33989,-6.97892 26.94177,-18.908 26.21144,-36.59871 a 4.4632471,4.4632471 0 0 1 0,-0.97374 443.48442,443.48442 0 0 0 8.11495,-68.32827 v -16.23 a 265.60377,265.60377 0 0 0 -2.51564,-38.5462 v 0 A 123.02332,123.02332 0 0 0 182.33457,151.853 l -43.33408,16.22998 a 407.53502,407.53502 0 0 1 -105.494936,13.22743 405.7497,405.7497 0 0 1 -99.570987,-13.552 l -43.820967,-16.23 c -6.97889,17.93414 -9.81914,43.57746 -8.11498,76.52438 v 0 a 443.8902,443.8902 0 0 0 8.11498,68.24713 4.057497,4.057497 0 0 1 0,0.97381 c -0.73034,17.69063 8.11499,29.7008 26.211432,36.59862 a 75.631748,75.631748 0 0 0 28.159038,5.11237 72.3046,72.3046 0 0 0 31.567322,-8.11499 54.61391,54.61391 0 0 0 11.117553,-7.30346 l 2.9213999,-4.70671 v 0 a 26.292581,26.292581 0 0 0 2.8402336,-24.34494 l -8.1149865,-9.33226 a 4.057497,4.057497 0 0 1 3.083686,-6.6543 46.093166,46.093166 0 0 0 21.0989852,-5.11249 C 17.762462,259.05205 11.595068,252.39779 5.1842231,248.2591 l -20.1251781,-8.60187 c -19.719444,-8.115 -31.567335,-19.15136 -35.137933,-32.45997 a 4.2197971,4.2197971 0 0 1 0,-1.13609 v -15.41848 a 4.057497,4.057497 0 0 1 4.057493,-3.97639 v 0 a 4.057497,4.057497 0 0 1 3.97635,4.13865 v 14.76932 c 3.083699,10.30601 13.308592,19.23254 30.350084,26.37372 l 21.0989857,9.16994 c 10.1437453,6.49199 18.8267763,18.01526 6.2485353,37.57243 a 4.057497,4.057497 0 0 1 -1.541853,1.37957 54.776214,54.776214 0 0 1 -17.6906829,5.92392 l 3.08370845,3.73291 a 4.057497,4.057497 0 0 1 0.5680461,0.89264 31.973077,31.973077 0 0 1 0,26.86063 l 29.70087635,2.02875 a 161.08263,161.08263 0 0 0 42.035664,-1.78532 32.459978,32.459978 0 0 1 -0.649213,-25.31876 4.057497,4.057497 0 0 1 0.56807,-0.89267 l 3.895207,-4.95012 a 54.61391,54.61391 0 0 1 -18.015301,-6.00511 4.057497,4.057497 0 0 1 -1.541854,-1.37954 c -12.497074,-19.55714 -3.814042,-31.08041 5.680513,-37.24785 l 21.261295,-9.25109 c 17.122634,-7.22233 27.347524,-16.22997 30.431204,-26.37372 v -14.76928 a 4.057497,4.057497 0 0 1 3.97635,-4.13863 3.9763471,3.9763471 0 0 1 4.13864,3.97631 v 15.41851 a 4.2197971,4.2197971 0 0 1 0,1.1361 c -3.57056,13.14628 -15.41849,24.34499 -35.219056,32.45998 l -20.693227,8.92649 c -5.842821,3.89518 -12.010192,10.46835 -3.246017,24.8319 a 46.093166,46.093166 0 0 0 21.098963,5.11238 4.057497,4.057497 0 0 1 3.164875,6.57317 l -8.115009,10.46839 a 26.211433,26.211433 0 0 0 2.515661,22.23507 v 0 a 59.482908,59.482908 0 0 0 3.245995,5.59927 z M 355.10276,232.43489 c -2.10988,8.84536 -1.86645,15.09388 0.64922,17.28494 2.51568,2.19103 9.5757,1.37955 18.90794,-2.59682 l 16.23,-16.87916 a 41.792219,41.792219 0 0 0 10.87405,-27.18521 40.57497,40.57497 0 0 0 -14.20119,-30.18783 59.158308,59.158308 0 0 0 -29.21402,-17.77179 99.002936,99.002936 0 0 0 -29.21397,-1.13611 517.33091,517.33091 0 0 0 -75.63175,22.15393 q -29.13282,6.41082 -42.92832,8.11496 a 25.643382,25.643382 0 0 1 -13.71435,-1.13611 c 0.81154,7.46581 1.37957,15.58081 1.62303,24.34501 l 34.32643,-2.19107 a 169.19763,169.19763 0 0 0 57.94104,-18.17756 l 29.29512,-11.60441 c 20.36863,-6.89778 35.94945,-3.32719 46.49892,10.63062 10.5495,13.9578 13.55205,24.34496 8.76426,32.45997 a 32.459978,32.459978 0 0 1 -20.20641,13.87664 z m -466.20641,-89.91413 46.823517,17.36609 a 397.63471,397.63471 0 0 0 97.379926,13.14629 401.04302,401.04302 0 0 0 103.222717,-12.82172 l 46.41779,-17.20378 a 89.832989,89.832989 0 0 0 33.19033,-26.53602 l 5.11246,-11.44215 c 1.54181,-11.847881 2.75908,-23.858071 3.57057,-35.705979 0.8115,-11.847884 1.37958,-24.344981 1.62301,-35.543652 v 0 c 1.05496,-23.046601 1.21723,-45.038228 0,-65.325719 v 0 l -0.9738,-35.21907 c -14.28241,-38.87082 -39.52,-61.59281 -77.09243,-69.46436 a 81.149941,81.149941 0 0 0 -54.532781,8.11499 94.458535,94.458535 0 0 1 -28.240186,5.3559 c -5.680466,0.73035 -11.929027,1.21726 -18.339872,1.46071 v 0 h -5.274753 a 164.08518,164.08518 0 0 1 -35.7871272,-1.46071 94.052786,94.052786 0 0 1 -27.9155928,-6.00508 81.149941,81.149941 0 0 0 -54.695043,-8.115 c -37.653575,8.115 -62.891205,30.59352 -77.092465,69.464348 l -1.21723,35.056779 v 0 c -0.73037,20.368637 -0.6492,42.360256 0,65.406856 v 0 c 0,11.442123 1.05494,23.371174 1.7853,35.543676 0.73035,12.172478 1.94759,23.858103 3.57059,35.624811 l 5.43704,12.0102 a 90.969088,90.969088 0 0 0 33.02803,26.29259 z M 232.72866,66.807852 a 52.422864,52.422864 0 0 0 43.82096,-3.732897 C 292.04931,54.959968 304.62751,37.18812 313.95975,10.97669 a 91.618284,91.618284 0 0 0 -0.6492,-71.168498 c -9.00762,-19.800578 -35.94945,-23.533483 -80.0138,-11.279841 0,1.217245 0,2.515648 0,3.814048 l 1.0549,29.619728 a 49.339165,49.339165 0 0 1 22.96549,-3.570595 v 0 a 23.371185,23.371185 0 0 1 17.20377,8.926491 c 5.92392,8.114992 7.38465,20.125189 4.30092,37.6535775 a 4.3009472,4.3009472 0 0 1 0,0.9737991 l -8.92651,20.2874774 a 30.18778,30.18778 0 0 1 -35.86827,13.308596 c -0.24388,8.845341 -0.7303,18.015301 -1.29839,27.266379 z M -204.83183,-78.937449 c -18.98909,0 -31.32387,6.086247 -36.92323,18.177593 a 92.592083,92.592083 0 0 0 -0.6492,71.411951 c 9.25109,26.21143 21.91049,43.739827 37.41014,51.935956 a 52.179415,52.179415 0 0 0 43.73982,3.895207 c -0.56806,-9.332246 -1.05497,-18.421039 -1.46072,-27.347547 a 29.70088,29.70088 0 0 1 -34.97563,-12.659382 l -9.25108,-21.0178333 a 4.2197971,4.2197971 0 0 1 0,-0.892644 c -3.0837,-17.5283937 -1.623,-29.7820307 4.30094,-37.6535777 a 23.371185,23.371185 0 0 1 17.28495,-8.520742 49.176867,49.176867 0 0 1 22.88428,3.570595 l 1.05494,-29.700875 v 0 c 0,-1.217253 0,-2.515656 0,-3.732901 a 165.87049,165.87049 0 0 0 -43.41521,-7.4658 z M 234.35165,31.426486 a 21.991635,21.991635 0 0 0 28.15908,-8.926508 l 8.11496,-19.1513797 c 2.51562,-14.6881413 1.54188,-25.0753333 -2.84024,-30.8369823 a 15.418489,15.418489 0 0 0 -11.52329,-5.68049 43.090621,43.090621 0 0 0 -21.82934,4.138643 c 0.89263,18.664488 0.81147,38.9519711 -0.0812,60.456717 z m -433.66529,-28.8082392 8.7642,19.8005892 a 21.667035,21.667035 0 0 0 27.67213,8.114986 c -0.73036,-21.1801292 -0.8115,-41.467611 0,-60.456702 a 42.928318,42.928318 0 0 0 -22.47853,-3.976345 15.418489,15.418489 0 0 0 -11.5233,5.680493 c -3.97635,5.842798 -4.70669,16.148838 -2.4345,30.8369788 z M 131.61581,-146.04845 a 88.778039,88.778039 0 0 1 18.17764,1.86645 105.49493,105.49493 0 0 1 73.03495,52.909768 C 213.98301,-146.12961 179.81889,-183.13397 119.68681,-203.90835 a 282.32063,282.32063 0 0 0 -65.406865,-14.60699 c -8.683057,-0.81152 -17.447254,-1.21725 -26.130286,-1.21725 l -11.036386,0.8115 a 282.2395,282.2395 0 0 0 -64.919963,14.60698 c -60.53786,21.01784 -94.53968,58.10335 -103.30388,112.960721 a 105.49493,105.49493 0 0 1 73.03494,-52.990921 89.264933,89.264933 0 0 1 59.888679,8.115 89.264933,89.264933 0 0 0 25.1564815,5.35591 v 0 c 6.6542965,0.64921 14.4446875,1.21724 23.2900275,1.62299 5.437039,0 10.792935,0 16.229972,0 h 0.568071 c 6.167394,0 12.091335,-0.6492 17.690683,-1.37955 a 89.264933,89.264933 0 0 0 25.562243,-5.3559 91.050238,91.050238 0 0 1 41.305283,-10.06259 z M 47.138743,51.308213 A 35.056775,35.056775 0 0 1 29.691512,47.169554 12.983991,12.983991 0 0 1 21.170765,35.483979 14.03894,14.03894 0 0 1 29.691512,23.311478 38.302774,38.302774 0 0 1 47.138743,19.578579 36.598623,36.598623 0 0 1 64.504831,23.311478 14.03894,14.03894 0 0 1 73.10672,35.402837 13.146291,13.146291 0 0 1 64.342546,47.169554 33.352626,33.352626 0 0 1 47.138743,51.308213 Z m 0,-23.533482 a 30.18778,30.18778 0 0 0 -13.389738,2.840258 c -2.759114,1.54183 -4.219801,3.245994 -4.219801,4.86899 0,1.622997 1.460687,3.083686 4.219801,4.463255 a 27.26638,27.26638 0 0 0 13.63319,3.245994 25.805683,25.805683 0 0 0 13.308595,-3.083709 c 3.083685,-1.541854 4.544374,-3.083686 4.544374,-4.62554 0,-1.541853 -1.460689,-3.32716 -4.463231,-4.950157 A 28.72708,28.72708 0 0 0 47.138743,27.774731 Z M 161.96594,41.164469 c -4.21982,0 -7.62812,-3.002542 -10.22493,-8.926484 a 44.794768,44.794768 0 0 1 -2.7591,-17.041493 47.959618,47.959618 0 0 1 2.67798,-16.2299928 c 2.75907,-5.8427945 6.16737,-8.6830418 10.30605,-8.6830418 2.92135,0 6.97887,1.4607021 9.81911,8.6018919 a 42.197971,42.197971 0 0 1 3.16487,16.3111427 39.520022,39.520022 0 0 1 -3.246,16.716875 c -2.10992,6.167417 -5.43707,9.251102 -9.73798,9.251102 z m 0,-43.0094691 c 0,0 -1.37957,0.6492017 -2.84028,3.7328965 a 40.57497,40.57497 0 0 0 -2.02873,13.3085956 36.842075,36.842075 0 0 0 2.10988,13.470881 c 1.54185,3.489446 2.67797,3.895207 2.75913,3.97635 0.081,0.08121 1.05493,-0.486904 2.27219,-3.895184 A 32.459978,32.459978 0 0 0 166.8349,15.196492 34.407578,34.407578 0 0 0 164.31927,1.4010015 c -1.21724,-2.4345023 -2.19107,-3.2460016 -2.35333,-3.2460016 z M -75.803421,41.164469 c -4.2198,0 -7.628088,-3.002542 -10.224899,-8.926484 a 44.713618,44.713618 0 0 1 -2.75909,-17.041493 48.121917,48.121917 0 0 1 2.677956,-16.2299928 c 2.759091,-5.8427945 6.16739,-8.6830418 10.306033,-8.6830418 2.921394,0 6.978895,1.4607021 9.819145,8.6018919 a 42.36027,42.36027 0 0 1 3.164851,16.3111427 39.520022,39.520022 0 0 1 -3.246008,16.716875 c -2.109889,6.167417 -5.680499,9.251102 -9.737988,9.251102 z m 0,-43.0094691 c 0,0 -1.379554,0.6492017 -2.840249,3.7328965 a 40.57497,40.57497 0 0 0 -2.028748,13.3085956 36.679774,36.679774 0 0 0 2.109905,13.470881 c 1.541839,3.489446 2.677946,3.895207 2.759092,3.97635 0.08115,0.08121 1.05495,-0.486904 2.272202,-3.895184 a 31.973077,31.973077 0 0 0 2.596792,-13.552047 34.407578,34.407578 0 0 0 -2.515647,-13.7954905 c -1.217253,-2.4345023 -2.191046,-3.2460016 -2.353347,-3.2460016 z"
         inkscape:connector-curvature="0"
         inkscape:export-xdpi="72"
         inkscape:export-ydpi="72"
         style="stroke-width:3.06708455;stroke-miterlimit:4;stroke-dasharray:none" />
    </g>
  </g>
</svg>
