<?xml version="1.0" encoding="UTF-8" standalone="no"?>
<!-- Created with Inkscape (http://www.inkscape.org/) -->

<svg
   xmlns:dc="http://purl.org/dc/elements/1.1/"
   xmlns:cc="http://creativecommons.org/ns#"
   xmlns:rdf="http://www.w3.org/1999/02/22-rdf-syntax-ns#"
   xmlns:svg="http://www.w3.org/2000/svg"
   xmlns="http://www.w3.org/2000/svg"
   xmlns:sodipodi="http://sodipodi.sourceforge.net/DTD/sodipodi-0.dtd"
   xmlns:inkscape="http://www.inkscape.org/namespaces/inkscape"
   width="21.748516mm"
   height="19.27866mm"
   viewBox="0 0 21.748516 19.27866"
   version="1.1"
   id="svg8"
   inkscape:version="0.92.3 (unknown)"
   sodipodi:docname="icon.svg">
  <defs
     id="defs2" />
  <sodipodi:namedview
     id="base"
     pagecolor="#ffffff"
     bordercolor="#666666"
     borderopacity="1.0"
     inkscape:pageopacity="0.0"
     inkscape:pageshadow="2"
     inkscape:zoom="3.959798"
     inkscape:cx="62.369335"
     inkscape:cy="21.171805"
     inkscape:document-units="mm"
     inkscape:current-layer="g35"
     showgrid="false"
     inkscape:window-width="1366"
     inkscape:window-height="707"
     inkscape:window-x="0"
     inkscape:window-y="182"
     inkscape:window-maximized="1" />
  <metadata
     id="metadata5">
    <rdf:RDF>
      <cc:Work
         rdf:about="">
        <dc:format>image/svg+xml</dc:format>
        <dc:type
           rdf:resource="http://purl.org/dc/dcmitype/StillImage" />
        <dc:title></dc:title>
      </cc:Work>
    </rdf:RDF>
  </metadata>
  <g
     inkscape:label="Capa 1"
     inkscape:groupmode="layer"
     id="layer1"
     transform="translate(-14.072171,-50.988845)">
    <g
       id="g35"
       transform="matrix(0.26458333,0,0,0.26458333,14.07984,50.999428)">
      <g
         id="g14"
         data-name="Layer1 0 FILL"
         inkscape:export-xdpi="72"
         inkscape:export-ydpi="72">
        <path
           id="path12"
           transform="translate(-9.13,-15.03)"
           d="m 60,43.15 a 5.41,5.41 0 0 0 -0.3,1.9 5,5 0 0 0 0.3,1.85 q 0.35,0.8 0.8,0.8 0.45,0 0.75,-0.8 A 4.36,4.36 0 0 0 61.9,45 4.72,4.72 0 0 0 61.55,43.1 q -0.3,-0.75 -0.75,-0.75 -0.45,0 -0.8,0.75 M 32.25,46.9 A 4.36,4.36 0 0 0 32.6,45 4.72,4.72 0 0 0 32.25,43.1 q -0.3,-0.75 -0.75,-0.75 -0.45,0 -0.8,0.75 a 5.41,5.41 0 0 0 -0.3,1.9 5,5 0 0 0 0.3,1.85 q 0.35,0.8 0.8,0.8 0.45,0 0.75,-0.75 z"
           inkscape:connector-curvature="0" />
      </g>
      <path
         id="path16"
         transform="translate(-9.13,-15.03)"
         d="M 69.8,87.85 A 17.17,17.17 0 0 1 66.55,87.49 L 64,87.15 c -2,-0.4 -3.17,-0.94 -3.69,-1.65 a 0.5,0.5 0 0 1 -0.08,-0.17 10.4,10.4 0 0 1 -3.78,0.62 9.9,9.9 0 0 1 -4.31,-1.1 7.39,7.39 0 0 1 -1.66,-1.08 L 50.4,83.68 q -0.17,-0.25 -0.32,-0.49 a 19.61,19.61 0 0 1 -5.69,0.31 l -4.11,-0.28 -0.24,0.39 a 0.53,0.53 0 0 1 -0.09,0.11 7.35,7.35 0 0 1 -1.66,1.08 9.91,9.91 0 0 1 -4.29,1.1 10.39,10.39 0 0 1 -3.78,-0.62 0.51,0.51 0 0 1 -0.08,0.17 c -0.51,0.71 -1.71,1.25 -3.66,1.65 l -2.58,0.36 c -2.85,0.56 -4.94,0.46 -6.35,-0.3 a 0.5,0.5 0 0 1 -0.13,-0.1 l -1.1,-1.2 C 15.53,84.7 14.94,82.73 14.49,79.8 l -0.5,-4 a 4.2,4.2 0 0 1 1.34,-3.67 L 16.9,71 a 5.54,5.54 0 0 1 5,-0.55 6.94,6.94 0 0 0 3.28,0.43 24.23,24.23 0 0 1 1.13,-9.5 A 11.56,11.56 0 0 1 22.24,58 L 21.5,56.38 a 0.51,0.51 0 0 1 0,-0.14 C 21.33,54.96 21.19,53.66 21.09,52.37 A 7.48,7.48 0 0 1 15.16,51.74 C 13,50.58 11.26,48.24 10,44.77 a 12.38,12.38 0 0 1 0.12,-9.55 c 1.33,-2.9 5,-3.56 10.85,-2 0.72,-7.91 5.28,-13.39 13.59,-16.28 a 35.74,35.74 0 0 1 8.27,-1.85 l 1.42,-0.1 c 1.13,0 2.25,0 3.35,0.15 A 35.76,35.76 0 0 1 55.92,17 c 8.28,2.91 12.85,8.39 13.58,16.3 5.87,-1.6 9.52,-0.93 10.86,2 a 12.25,12.25 0 0 1 0.12,9.53 c -1.24,3.47 -2.95,5.82 -5.08,7 a 7.51,7.51 0 0 1 -5.94,0.6 c -0.1,1.29 -0.23,2.59 -0.41,3.87 a 0.54,0.54 0 0 1 0,0.14 L 68.31,58 a 11.5,11.5 0 0 1 -4.12,3.47 15.83,15.83 0 0 1 0.75,2.86 c 0.2,0.36 0.62,0.76 1.75,0.6 1.13,-0.16 2.85,-0.51 5.17,-1 5,-1.71 8.15,-2.62 9.48,-2.76 a 13.19,13.19 0 0 1 3.9,0.16 8.24,8.24 0 0 1 4.06,2.46 5.93,5.93 0 0 1 2,4.48 6.2,6.2 0 0 1 -1.6,4 l -2.06,2.16 a 0.5,0.5 0 0 1 -0.16,0.11 c -1.66,0.73 -2.79,0.79 -3.48,0.2 -0.69,-0.59 -0.79,-1.73 -0.31,-3.49 a 0.5,0.5 0 0 1 0.48,-0.37 2.74,2.74 0 0 0 2.11,-1.26 c 0.39,-0.66 -0.35,-1.91 -1.06,-2.84 -1,-1.36 -2.53,-1.68 -4.59,-1 l -3.53,1.39 a 21.74,21.74 0 0 1 -7.46,2.33 l -4.33,0.27 v 1.21 a 7.09,7.09 0 0 0 3.29,-0.4 5.49,5.49 0 0 1 5,0.51 l 1.52,1.11 a 4.23,4.23 0 0 1 1.4,3.72 L 76,79.81 c -0.45,2.95 -1,4.91 -1.78,6 l -1.14,1.26 a 0.52,0.52 0 0 1 -0.13,0.1 6.55,6.55 0 0 1 -3.15,0.68 z m -8.62,-2.91 c 0.27,0.34 1,0.81 3,1.22 l 2.52,0.34 c 2.58,0.5 4.48,0.45 5.67,-0.16 l 1,-1.14 A 15.48,15.48 0 0 0 75,79.67 l 0.5,-3.94 A 3.21,3.21 0 0 0 74.44,72.9 L 73,71.9 a 4.49,4.49 0 0 0 -4.1,-0.38 8.22,8.22 0 0 1 -3.64,0.46 55.18,55.18 0 0 1 -1,7.91 5.12,5.12 0 0 1 -3.08,5.05 z M 18.11,86.3 c 1.19,0.6 3.09,0.66 5.65,0.16 l 2.58,-0.35 c 2,-0.4 2.72,-0.87 3,-1.21 a 5.12,5.12 0 0 1 -3.12,-5.1 55.17,55.17 0 0 1 -1,-7.91 8.11,8.11 0 0 1 -3.63,-0.48 4.52,4.52 0 0 0 -4.12,0.41 L 16,72.9 a 3.18,3.18 0 0 0 -1,2.78 l 0.5,4 a 15.1,15.1 0 0 0 1.62,5.58 z m 33.12,-3.23 a 6.71,6.71 0 0 0 1.4,0.88 8.91,8.91 0 0 0 3.89,1 9.31,9.31 0 0 0 3.56,-0.62 C 62.34,83.47 63.4,82 63.31,79.82 a 0.55,0.55 0 0 1 0,-0.12 54.65,54.65 0 0 0 1,-8.42 v -2 A 32.73,32.73 0 0 0 64,64.53 v 0 a 15.16,15.16 0 0 0 -0.69,-2.69 l -5.34,2 a 50.22,50.22 0 0 1 -13,1.63 A 50,50 0 0 1 32.7,63.8 l -5.4,-2 c -0.86,2.21 -1.21,5.37 -1,9.43 v 0 a 54.7,54.7 0 0 0 1,8.41 0.5,0.5 0 0 1 0,0.12 c -0.09,2.18 1,3.66 3.23,4.51 a 9.32,9.32 0 0 0 3.47,0.63 8.91,8.91 0 0 0 3.89,-1 6.73,6.73 0 0 0 1.37,-0.9 l 0.36,-0.58 v 0 a 3.24,3.24 0 0 0 0.35,-3 l -1,-1.15 a 0.5,0.5 0 0 1 0.38,-0.82 5.68,5.68 0 0 0 2.6,-0.63 c 1.08,-1.77 0.32,-2.59 -0.47,-3.1 L 39,72.66 c -2.43,-1 -3.89,-2.36 -4.33,-4 a 0.52,0.52 0 0 1 0,-0.14 v -1.9 a 0.5,0.5 0 0 1 0.5,-0.49 v 0 a 0.5,0.5 0 0 1 0.49,0.51 v 1.82 c 0.38,1.27 1.64,2.37 3.74,3.25 l 2.6,1.13 c 1.25,0.8 2.32,2.22 0.77,4.63 a 0.5,0.5 0 0 1 -0.19,0.17 6.75,6.75 0 0 1 -2.18,0.73 l 0.38,0.46 a 0.5,0.5 0 0 1 0.07,0.11 3.94,3.94 0 0 1 0,3.31 l 3.66,0.25 a 19.85,19.85 0 0 0 5.18,-0.22 4,4 0 0 1 -0.08,-3.12 0.5,0.5 0 0 1 0.07,-0.11 l 0.48,-0.61 A 6.73,6.73 0 0 1 47.94,77.7 0.5,0.5 0 0 1 47.75,77.53 c -1.54,-2.41 -0.47,-3.83 0.7,-4.59 l 2.62,-1.14 c 2.11,-0.89 3.37,-2 3.75,-3.25 v -1.82 a 0.5,0.5 0 0 1 0.49,-0.51 0.49,0.49 0 0 1 0.51,0.49 v 1.9 a 0.52,0.52 0 0 1 0,0.14 c -0.44,1.62 -1.9,3 -4.34,4 l -2.55,1.1 c -0.72,0.48 -1.48,1.29 -0.4,3.06 a 5.68,5.68 0 0 0 2.6,0.63 0.5,0.5 0 0 1 0.39,0.81 l -1,1.29 a 3.23,3.23 0 0 0 0.31,2.74 v 0 a 7.33,7.33 0 0 0 0.4,0.69 z M 84.6,71.77 c -0.26,1.09 -0.23,1.86 0.08,2.13 0.31,0.27 1.18,0.17 2.33,-0.32 l 2,-2.08 A 5.15,5.15 0 0 0 90.35,68.15 5,5 0 0 0 88.6,64.43 7.29,7.29 0 0 0 85,62.24 12.2,12.2 0 0 0 81.4,62.1 63.75,63.75 0 0 0 72.08,64.83 q -3.59,0.79 -5.29,1 A 3.16,3.16 0 0 1 65.1,65.69 c 0.1,0.92 0.17,1.92 0.2,3 l 4.23,-0.27 a 20.85,20.85 0 0 0 7.14,-2.24 l 3.61,-1.43 c 2.51,-0.85 4.43,-0.41 5.73,1.31 1.3,1.72 1.67,3 1.08,4 a 4,4 0 0 1 -2.49,1.71 z m -57.45,-11.08 5.77,2.14 a 49,49 0 0 0 12,1.62 49.42,49.42 0 0 0 12.72,-1.58 l 5.72,-2.12 a 11.07,11.07 0 0 0 4.09,-3.27 l 0.63,-1.41 c 0.19,-1.46 0.34,-2.94 0.44,-4.4 0.1,-1.46 0.17,-3 0.2,-4.38 v 0 c 0.13,-2.84 0.15,-5.55 0,-8.05 v 0 L 68.6,34.9 c -1.76,-4.79 -4.87,-7.59 -9.5,-8.56 a 10,10 0 0 0 -6.72,1 A 11.64,11.64 0 0 1 48.9,28 c -0.7,0.09 -1.47,0.15 -2.26,0.18 v 0 H 45.99 A 20.22,20.22 0 0 1 41.58,28 a 11.59,11.59 0 0 1 -3.44,-0.74 10,10 0 0 0 -6.74,-1 c -4.64,1 -7.75,3.77 -9.5,8.56 l -0.15,4.32 v 0 c -0.09,2.51 -0.08,5.22 0,8.06 v 0 c 0,1.41 0.13,2.88 0.22,4.38 0.09,1.5 0.24,2.94 0.44,4.39 l 0.67,1.48 a 11.21,11.21 0 0 0 4.07,3.24 z m 42.37,-9.33 a 6.46,6.46 0 0 0 5.4,-0.46 c 1.91,-1 3.46,-3.19 4.61,-6.42 a 11.29,11.29 0 0 0 -0.08,-8.77 c -1.11,-2.44 -4.43,-2.9 -9.86,-1.39 0,0.15 0,0.31 0,0.47 l 0.13,3.65 A 6.08,6.08 0 0 1 72.55,38 v 0 a 2.88,2.88 0 0 1 2.12,1.1 c 0.73,1 0.91,2.48 0.53,4.64 a 0.53,0.53 0 0 1 0,0.12 l -1.1,2.5 A 3.72,3.72 0 0 1 69.68,48 c -0.03,1.09 -0.09,2.22 -0.16,3.36 z M 15.6,33.4 c -2.34,0 -3.86,0.75 -4.55,2.24 a 11.41,11.41 0 0 0 -0.08,8.8 c 1.14,3.23 2.7,5.39 4.61,6.4 a 6.43,6.43 0 0 0 5.39,0.48 C 20.9,50.17 20.84,49.05 20.79,47.95 A 3.66,3.66 0 0 1 16.48,46.39 L 15.34,43.8 a 0.52,0.52 0 0 1 0,-0.11 c -0.38,-2.16 -0.2,-3.67 0.53,-4.64 A 2.88,2.88 0 0 1 18,38 a 6.06,6.06 0 0 1 2.82,0.44 l 0.13,-3.66 v 0 c 0,-0.15 0,-0.31 0,-0.46 A 20.44,20.44 0 0 0 15.6,33.4 Z M 69.72,47 a 2.71,2.71 0 0 0 3.47,-1.1 l 1,-2.36 c 0.31,-1.81 0.19,-3.09 -0.35,-3.8 a 1.9,1.9 0 0 0 -1.42,-0.7 5.31,5.31 0 0 0 -2.69,0.51 c 0.11,2.3 0.1,4.8 -0.01,7.45 z m -53.44,-3.55 1.08,2.44 a 2.67,2.67 0 0 0 3.41,1 c -0.09,-2.61 -0.1,-5.11 0,-7.45 A 5.29,5.29 0 0 0 18,38.95 a 1.9,1.9 0 0 0 -1.42,0.7 c -0.49,0.72 -0.58,1.99 -0.3,3.8 z M 57.06,25.13 a 10.94,10.94 0 0 1 2.24,0.23 13,13 0 0 1 9,6.52 C 67.21,25.12 63,20.56 55.59,18 a 34.79,34.79 0 0 0 -8.06,-1.8 c -1.07,-0.1 -2.15,-0.15 -3.22,-0.15 l -1.36,0.1 a 34.78,34.78 0 0 0 -8,1.8 C 27.49,20.54 23.3,25.11 22.22,31.87 a 13,13 0 0 1 9,-6.53 11,11 0 0 1 7.38,1 11,11 0 0 0 3.1,0.66 v 0 c 0.82,0.08 1.78,0.15 2.87,0.2 0.67,0 1.33,0 2,0 h 0.07 c 0.76,0 1.49,-0.08 2.18,-0.17 a 11,11 0 0 0 3.15,-0.66 11.22,11.22 0 0 1 5.09,-1.24 z M 46.65,49.45 A 4.32,4.32 0 0 1 44.5,48.94 1.6,1.6 0 0 1 43.45,47.5 1.73,1.73 0 0 1 44.5,46 a 4.72,4.72 0 0 1 2.15,-0.46 4.51,4.51 0 0 1 2.14,0.46 1.73,1.73 0 0 1 1.06,1.49 1.62,1.62 0 0 1 -1.08,1.45 4.11,4.11 0 0 1 -2.12,0.51 z m 0,-2.9 A 3.72,3.72 0 0 0 45,46.9 c -0.34,0.19 -0.52,0.4 -0.52,0.6 0,0.2 0.18,0.38 0.52,0.55 a 3.36,3.36 0 0 0 1.68,0.4 3.18,3.18 0 0 0 1.64,-0.38 c 0.38,-0.19 0.56,-0.38 0.56,-0.57 0,-0.19 -0.18,-0.41 -0.55,-0.61 A 3.54,3.54 0 0 0 46.65,46.55 Z M 60.8,48.2 c -0.52,0 -0.94,-0.37 -1.26,-1.1 A 5.52,5.52 0 0 1 59.2,45 5.91,5.91 0 0 1 59.53,43 c 0.34,-0.72 0.76,-1.07 1.27,-1.07 0.36,0 0.86,0.18 1.21,1.06 A 5.2,5.2 0 0 1 62.4,45 4.87,4.87 0 0 1 62,47.06 c -0.26,0.76 -0.67,1.14 -1.2,1.14 z m 0,-5.3 c 0,0 -0.17,0.08 -0.35,0.46 A 5,5 0 0 0 60.2,45 a 4.54,4.54 0 0 0 0.26,1.66 c 0.19,0.43 0.33,0.48 0.34,0.49 0.01,0.01 0.13,-0.06 0.28,-0.48 A 4,4 0 0 0 61.4,45 4.24,4.24 0 0 0 61.09,43.3 C 60.94,43 60.82,42.9 60.8,42.9 Z m -29.3,5.3 c -0.52,0 -0.94,-0.37 -1.26,-1.1 A 5.51,5.51 0 0 1 29.9,45 5.93,5.93 0 0 1 30.23,43 c 0.34,-0.72 0.76,-1.07 1.27,-1.07 0.36,0 0.86,0.18 1.21,1.06 A 5.22,5.22 0 0 1 33.1,45 4.87,4.87 0 0 1 32.7,47.06 C 32.44,47.82 32,48.2 31.5,48.2 Z m 0,-5.3 c 0,0 -0.17,0.08 -0.35,0.46 A 5,5 0 0 0 30.9,45 a 4.52,4.52 0 0 0 0.26,1.66 c 0.19,0.43 0.33,0.48 0.34,0.49 0.01,0.01 0.13,-0.06 0.28,-0.48 A 3.94,3.94 0 0 0 32.1,45 4.24,4.24 0 0 0 31.79,43.3 C 31.64,43 31.52,42.9 31.5,42.9 Z"
         inkscape:connector-curvature="0"
         inkscape:export-xdpi="72"
         inkscape:export-ydpi="72" />
    </g>
  </g>
</svg>
